<svg width="32" height="32" viewBox="0 0 32 32" fill="none" xmlns="http://www.w3.org/2000/svg">
<path d="M24.9469 9.61333C24.823 9.48836 24.6755 9.38917 24.513 9.32148C24.3505 9.25378 24.1763 9.21893 24.0003 9.21893C23.8242 9.21893 23.65 9.25378 23.4875 9.32148C23.325 9.38917 23.1775 9.48836 23.0536 9.61333L13.1203 19.56L8.94693 15.3733C8.81823 15.249 8.66631 15.1513 8.49983 15.0857C8.33336 15.0201 8.1556 14.9879 7.97669 14.991C7.79778 14.9941 7.62123 15.0324 7.45713 15.1037C7.29303 15.175 7.14458 15.278 7.02026 15.4067C6.89594 15.5354 6.79819 15.6873 6.73258 15.8538C6.66698 16.0202 6.6348 16.198 6.6379 16.3769C6.64099 16.5558 6.6793 16.7324 6.75062 16.8965C6.82195 17.0606 6.9249 17.209 7.05359 17.3333L12.1736 22.4533C12.2975 22.5783 12.445 22.6775 12.6075 22.7452C12.77 22.8129 12.9442 22.8477 13.1203 22.8477C13.2963 22.8477 13.4705 22.8129 13.633 22.7452C13.7955 22.6775 13.943 22.5783 14.0669 22.4533L24.9469 11.5733C25.0823 11.4485 25.1903 11.2969 25.2642 11.1283C25.338 10.9596 25.3762 10.7775 25.3762 10.5933C25.3762 10.4092 25.338 10.2271 25.2642 10.0584C25.1903 9.88972 25.0823 9.73819 24.9469 9.61333V9.61333Z" fill="#00A1E4"/>
</svg>
